mtllib ganter_gn_203-12-m4.mtl
o ganter_gn_203-12-m4_1
v 39.238 6 0
v 39.66 4.024 0
v 39.238 5.796 -1.553
v 39.238 5.196 -3
v 39.836 1.975 -1.982
v 39.915 2.019 0
v 40 0 0
v 39.836 -1.975 -1.982
v 39.915 -2.019 0
v 39.66 -4.024 0
v 39.238 -6 0
v 39.238 -5.796 -1.553
v 39.238 -5.196 -3
v 39.238 -4.243 -4.243
v 39.238 -3 -5.196
v 39.238 -1.553 -5.796
v 39.238 0 -6
v 39.238 1.553 -5.796
v 39.238 3 -5.196
v 39.238 4.243 -4.243
v 0 0 -4.5
v 0 1.165 -4.347
v 0 2.25 -3.897
v 0 3.182 -3.182
v 0 3.897 -2.25
v 0 4.347 -1.165
v 0 4.5 0
v 0 4.347 1.165
v 39.238 5.796 1.553
v 39.238 5.196 3
v 0 3.897 2.25
v 0 3.182 3.182
v 39.238 4.243 4.243
v 0 2.25 3.897
v 39.238 3 5.196
v 0 1.165 4.347
v 39.238 1.553 5.796
v 39.238 0 6
v 0 0 4.5
v 0 0 2
v 0 0.518 1.932
v -7.6 0 2
v -7.6 0.518 1.932
v -7.6 1 1.732
v 0 1 1.732
v 0 1.414 1.414
v -7.6 1.414 1.414
v 0 1.732 1
v -7.6 1.732 1
v 0 1.932 0.518
v -7.6 1.932 0.518
v -7.6 2 0
v 0 2 0
v 0 1.932 -0.518
v -7.6 1.932 -0.518
v 0 1.732 -1
v -7.6 1.732 -1
v -7.6 1.414 -1.414
v 0 1.414 -1.414
v 0 1 -1.732
v -7.6 1 -1.732
v 0 0.518 -1.932
v -7.6 0.518 -1.932
v -7.6 0 -2
v 0 0 -2
v -8 0 -1.6
v -8 0.414 -1.545
v -8 0.8 -1.386
v -8 1.131 -1.131
v -8 1.386 -0.8
v -8 1.545 -0.414
v -8 1.6 0
v -8 1.545 0.414
v -8 1.386 0.8
v -8 1.131 1.131
v -8 0.8 1.386
v -8 0.414 1.545
v -8 0 1.6
v -8 -0.414 -1.545
v -8 -0.8 -1.386
v -8 -1.131 -1.131
v -8 -1.386 -0.8
v -8 -1.545 -0.414
v -8 -1.6 0
v -8 -1.545 0.414
v -8 -1.386 0.8
v -8 -1.131 1.131
v -8 -0.8 1.386
v -8 -0.414 1.545
v -7.6 -0.518 1.932
v -7.6 -1 1.732
v -7.6 -1.414 1.414
v -7.6 -1.732 1
v -7.6 -1.932 0.518
v -7.6 -2 0
v -7.6 -1.932 -0.518
v -7.6 -1.732 -1
v -7.6 -1.414 -1.414
v -7.6 -1 -1.732
v -7.6 -0.518 -1.932
v 0 -0.518 -1.932
v 0 -1 -1.732
v 0 -1.414 -1.414
v 0 -1.732 -1
v 0 -1.932 -0.518
v 0 -2 0
v 0 -1.932 0.518
v 0 -1.732 1
v 0 -1.414 1.414
v 0 -1 1.732
v 0 -0.518 1.932
v 0 -1.165 -4.347
v 0 -2.25 -3.897
v 0 -3.182 -3.182
v 0 -3.897 -2.25
v 0 -4.347 -1.165
v 0 -4.5 0
v 0 -4.347 1.165
v 0 -3.897 2.25
v 0 -3.182 3.182
v 0 -2.25 3.897
v 0 -1.165 4.347
v 39.238 -1.553 5.796
v 39.238 -3 5.196
v 39.238 -4.243 4.243
v 39.238 -5.196 3
v 39.238 -5.796 1.553
v 39.836 -1.975 1.982
v 39.836 1.975 1.982
vn 0.968 0.25 0
vn 0.986 0.168 0
vn 0.968 0.241 -0.065
vn 0.968 0.217 -0.125
vn 0.993 0.082 -0.083
vn 0.996 0.084 0
vn 1 0 0
vn 0.993 -0.082 -0.083
vn 0.996 -0.084 0
vn 0.986 -0.168 0
vn 0.968 -0.25 0
vn 0.968 -0.241 -0.065
vn 0.968 -0.217 -0.125
vn 0.968 -0.177 -0.177
vn 0.968 -0.125 -0.217
vn 0.968 -0.065 -0.241
vn 0.968 0 -0.25
vn 0.968 0.065 -0.241
vn 0.968 0.125 -0.217
vn 0.968 0.177 -0.177
vn -0.038 0 -0.999
vn -0.038 0.259 -0.965
vn -0.038 0.5 -0.865
vn -0.038 0.707 -0.707
vn -0.038 0.865 -0.5
vn -0.038 0.965 -0.259
vn -0.038 0.999 0
vn -0.038 0.965 0.259
vn -0.038 0.865 0.5
vn -0.038 0.707 0.707
vn -0.038 0.5 0.865
vn -0.038 0.259 0.965
vn -0.038 0 0.999
vn 0 0 1
vn 0 0.259 0.966
vn 0 0.5 0.866
vn 0 0.707 0.707
vn 0 0.866 0.5
vn 0 0.966 0.259
vn 0 1 0
vn 0 0.966 -0.259
vn 0 0.866 -0.5
vn 0 0.707 -0.707
vn 0 0.5 -0.866
vn 0 0.259 -0.966
vn 0 0 -1
vn -0.707 0 -0.707
vn -0.707 0.183 -0.683
vn -0.707 0.354 -0.612
vn -0.707 0.5 -0.5
vn -0.707 0.612 -0.354
vn -0.707 0.683 -0.183
vn -0.707 0.707 0
vn -0.707 0.683 0.183
vn -0.707 0.612 0.354
vn -0.707 0.5 0.5
vn -0.707 0.354 0.612
vn -0.707 0.183 0.683
vn -0.707 0 0.707
vn -1 0 0
vn -0.707 -0.183 0.683
vn -0.707 -0.354 0.612
vn -0.707 -0.5 0.5
vn -0.707 -0.612 0.354
vn -0.707 -0.683 0.183
vn -0.707 -0.707 0
vn -0.707 -0.683 -0.183
vn -0.707 -0.612 -0.354
vn -0.707 -0.5 -0.5
vn -0.707 -0.354 -0.612
vn -0.707 -0.183 -0.683
vn 0 -0.259 -0.966
vn 0 -0.5 -0.866
vn 0 -0.707 -0.707
vn 0 -0.866 -0.5
vn 0 -0.966 -0.259
vn 0 -1 0
vn 0 -0.966 0.259
vn 0 -0.866 0.5
vn 0 -0.707 0.707
vn 0 -0.5 0.866
vn 0 -0.259 0.966
vn -0.038 -0.259 0.965
vn -0.038 -0.5 0.865
vn -0.038 -0.707 0.707
vn -0.038 -0.865 0.5
vn -0.038 -0.965 0.259
vn -0.038 -0.999 0
vn -0.038 -0.965 -0.259
vn -0.038 -0.865 -0.5
vn -0.038 -0.707 -0.707
vn -0.038 -0.5 -0.865
vn -0.038 -0.259 -0.965
vn 0.968 -0.241 0.065
vn 0.968 -0.217 0.125
vn 0.993 -0.082 0.083
vn 0.993 0.082 0.083
vn 0.968 0.241 0.065
vn 0.968 0.217 0.125
vn 0.968 0.177 0.177
vn 0.968 0.125 0.217
vn 0.968 0.065 0.241
vn 0.968 0 0.25
vn 0.968 -0.065 0.241
vn 0.968 -0.125 0.217
vn 0.968 -0.177 0.177
g ganter_gn_203-12-m4_1
usemtl ganter_gn_203-12-m4_color_1
f 1//1 2//2 3//3
f 3//3 2//2 4//4
f 4//4 2//2 5//5
f 5//5 2//2 6//6
f 5//5 6//6 7//7
f 5//5 7//7 8//8
f 8//8 7//7 9//9
f 8//8 9//9 10//10
f 11//11 12//12 10//10
f 10//10 12//12 13//13
f 10//10 13//13 8//8
f 8//8 13//13 14//14
f 8//8 14//14 15//15
f 15//15 16//16 8//8
f 8//8 16//16 17//17
f 8//8 17//17 5//5
f 5//5 17//17 18//18
f 5//5 18//18 19//19
f 19//19 20//20 5//5
f 5//5 20//20 4//4
f 21//21 22//22 17//21
f 17//21 22//22 18//22
f 22//22 23//23 18//22
f 18//22 23//23 19//23
f 19//23 23//23 20//24
f 20//24 23//23 24//24
f 20//24 24//24 25//25
f 20//24 25//25 4//25
f 4//25 25//25 26//26
f 4//25 26//26 3//26
f 3//26 26//26 27//27
f 3//26 27//27 1//27
f 1//27 27//27 28//28
f 1//27 28//28 29//28
f 29//28 28//28 30//29
f 28//28 31//29 30//29
f 30//29 31//29 32//30
f 30//29 32//30 33//30
f 33//30 32//30 34//31
f 33//30 34//31 35//31
f 35//31 34//31 36//32
f 35//31 36//32 37//32
f 37//32 36//32 38//33
f 36//32 39//33 38//33
usemtl ganter_gn_203-12-m4_color_2
f 40//34 41//35 42//34
f 42//34 41//35 43//35
f 43//35 41//35 44//36
f 44//36 41//35 45//36
f 44//36 45//36 46//37
f 44//36 46//37 47//37
f 47//37 46//37 48//38
f 47//37 48//38 49//38
f 49//38 48//38 50//39
f 49//38 50//39 51//39
f 51//39 50//39 52//40
f 50//39 53//40 52//40
f 52//40 53//40 54//41
f 52//40 54//41 55//41
f 55//41 54//41 56//42
f 55//41 56//42 57//42
f 57//42 56//42 58//43
f 56//42 59//43 58//43
f 58//43 59//43 60//44
f 58//43 60//44 61//44
f 61//44 60//44 62//45
f 61//44 62//45 63//45
f 63//45 62//45 64//46
f 62//45 65//46 64//46
f 66//47 67//48 64//47
f 64//47 67//48 63//48
f 63//48 67//48 61//49
f 61//49 67//48 68//49
f 61//49 68//49 69//50
f 61//49 69//50 58//50
f 58//50 69//50 70//51
f 58//50 70//51 57//51
f 57//51 70//51 71//52
f 57//51 71//52 55//52
f 55//52 71//52 52//53
f 71//52 72//53 52//53
f 52//53 72//53 73//54
f 52//53 73//54 51//54
f 51//54 73//54 74//55
f 51//54 74//55 49//55
f 49//55 74//55 47//56
f 74//55 75//56 47//56
f 47//56 75//56 76//57
f 47//56 76//57 44//57
f 44//57 76//57 77//58
f 44//57 77//58 43//58
f 43//58 77//58 42//59
f 77//58 78//59 42//59
f 66//60 79//60 67//60
f 67//60 79//60 68//60
f 79//60 80//60 68//60
f 68//60 80//60 69//60
f 80//60 81//60 69//60
f 69//60 81//60 70//60
f 81//60 82//60 70//60
f 70//60 82//60 71//60
f 82//60 83//60 71//60
f 71//60 83//60 72//60
f 83//60 84//60 72//60
f 72//60 84//60 73//60
f 84//60 85//60 73//60
f 73//60 85//60 74//60
f 85//60 86//60 74//60
f 74//60 86//60 75//60
f 86//60 87//60 75//60
f 75//60 87//60 76//60
f 87//60 88//60 76//60
f 76//60 88//60 77//60
f 88//60 89//60 77//60
f 77//60 89//60 78//60
f 42//59 78//59 90//61
f 90//61 78//59 89//61
f 90//61 89//61 88//62
f 90//61 88//62 91//62
f 91//62 88//62 87//63
f 91//62 87//63 92//63
f 92//63 87//63 93//64
f 87//63 86//64 93//64
f 93//64 86//64 85//65
f 93//64 85//65 94//65
f 94//65 85//65 84//66
f 94//65 84//66 95//66
f 95//66 84//66 96//67
f 84//66 83//67 96//67
f 96//67 83//67 82//68
f 96//67 82//68 97//68
f 97//68 82//68 81//69
f 97//68 81//69 98//69
f 98//69 81//69 80//70
f 98//69 80//70 99//70
f 99//70 80//70 100//71
f 80//70 79//71 100//71
f 100//71 79//71 66//47
f 100//71 66//47 64//47
f 64//46 65//46 100//72
f 100//72 65//46 101//72
f 100//72 101//72 102//73
f 100//72 102//73 99//73
f 99//73 102//73 103//74
f 99//73 103//74 98//74
f 98//74 103//74 97//75
f 103//74 104//75 97//75
f 97//75 104//75 105//76
f 97//75 105//76 96//76
f 96//76 105//76 106//77
f 96//76 106//77 95//77
f 95//77 106//77 94//78
f 106//77 107//78 94//78
f 94//78 107//78 108//79
f 94//78 108//79 93//79
f 93//79 108//79 109//80
f 93//79 109//80 92//80
f 92//80 109//80 110//81
f 92//80 110//81 91//81
f 91//81 110//81 90//82
f 110//81 111//82 90//82
f 90//82 111//82 40//34
f 90//82 40//34 42//34
usemtl ganter_gn_203-12-m4_color_1
f 22//60 21//60 65//60
f 65//60 21//60 112//60
f 65//60 112//60 101//60
f 101//60 112//60 113//60
f 101//60 113//60 102//60
f 102//60 113//60 114//60
f 102//60 114//60 103//60
f 103//60 114//60 115//60
f 103//60 115//60 104//60
f 104//60 115//60 116//60
f 104//60 116//60 105//60
f 105//60 116//60 106//60
f 116//60 117//60 106//60
f 106//60 117//60 107//60
f 117//60 118//60 107//60
f 107//60 118//60 108//60
f 118//60 119//60 108//60
f 108//60 119//60 109//60
f 119//60 120//60 109//60
f 109//60 120//60 110//60
f 120//60 121//60 110//60
f 110//60 121//60 111//60
f 121//60 122//60 111//60
f 111//60 122//60 40//60
f 122//60 39//60 40//60
f 40//60 39//60 36//60
f 40//60 36//60 41//60
f 41//60 36//60 34//60
f 41//60 34//60 45//60
f 45//60 34//60 32//60
f 45//60 32//60 46//60
f 46//60 32//60 31//60
f 46//60 31//60 48//60
f 48//60 31//60 28//60
f 48//60 28//60 50//60
f 50//60 28//60 27//60
f 50//60 27//60 53//60
f 53//60 27//60 54//60
f 27//60 26//60 54//60
f 54//60 26//60 56//60
f 26//60 25//60 56//60
f 56//60 25//60 59//60
f 25//60 24//60 59//60
f 59//60 24//60 60//60
f 24//60 23//60 60//60
f 60//60 23//60 62//60
f 23//60 22//60 62//60
f 62//60 22//60 65//60
f 38//33 39//33 123//83
f 123//83 39//33 122//83
f 123//83 122//83 121//84
f 123//83 121//84 124//84
f 124//84 121//84 120//85
f 124//84 120//85 125//85
f 125//85 120//85 119//86
f 125//85 119//86 126//86
f 126//86 119//86 127//87
f 119//86 118//87 127//87
f 127//87 118//87 117//88
f 127//87 117//88 11//88
f 11//88 117//88 116//89
f 11//88 116//89 12//89
f 12//89 116//89 115//90
f 12//89 115//90 13//90
f 13//90 115//90 114//91
f 13//90 114//91 14//91
f 14//91 114//91 15//92
f 114//91 113//92 15//92
f 15//92 113//92 112//93
f 15//92 112//93 16//93
f 16//93 112//93 21//21
f 16//93 21//21 17//21
f 11//11 10//10 127//94
f 127//94 10//10 126//95
f 126//95 10//10 128//96
f 128//96 10//10 9//9
f 128//96 9//9 7//7
f 128//96 7//7 129//97
f 129//97 7//7 6//6
f 129//97 6//6 2//2
f 1//1 29//98 2//2
f 2//2 29//98 30//99
f 2//2 30//99 129//97
f 129//97 30//99 33//100
f 129//97 33//100 35//101
f 35//101 37//102 129//97
f 129//97 37//102 38//103
f 129//97 38//103 128//96
f 128//96 38//103 123//104
f 128//96 123//104 124//105
f 124//105 125//106 128//96
f 128//96 125//106 126//95
l 7 6
l 6 2
l 2 1
l 7 9
l 9 10
l 10 11
l 17 16
l 16 15
l 15 14
l 14 13
l 13 12
l 12 11
l 1 3
l 3 4
l 4 20
l 20 19
l 19 18
l 18 17
l 39 36
l 36 34
l 34 32
l 32 31
l 31 28
l 28 27
l 27 26
l 26 25
l 25 24
l 24 23
l 23 22
l 22 21
l 39 38
l 38 37
l 37 35
l 35 33
l 33 30
l 30 29
l 29 1
l 21 17
l 40 41
l 41 45
l 45 46
l 46 48
l 48 50
l 50 53
l 53 54
l 54 56
l 56 59
l 59 60
l 60 62
l 62 65
l 65 64
l 42 43
l 43 44
l 44 47
l 47 49
l 49 51
l 51 52
l 52 55
l 55 57
l 57 58
l 58 61
l 61 63
l 63 64
l 40 42
l 78 77
l 77 76
l 76 75
l 75 74
l 74 73
l 73 72
l 72 71
l 71 70
l 70 69
l 69 68
l 68 67
l 67 66
l 78 42
l 66 64
l 66 79
l 79 80
l 80 81
l 81 82
l 82 83
l 83 84
l 84 85
l 85 86
l 86 87
l 87 88
l 88 89
l 89 78
l 64 100
l 100 99
l 99 98
l 98 97
l 97 96
l 96 95
l 95 94
l 94 93
l 93 92
l 92 91
l 91 90
l 90 42
l 65 101
l 101 102
l 102 103
l 103 104
l 104 105
l 105 106
l 106 107
l 107 108
l 108 109
l 109 110
l 110 111
l 111 40
l 21 112
l 112 113
l 113 114
l 114 115
l 115 116
l 116 117
l 117 118
l 118 119
l 119 120
l 120 121
l 121 122
l 122 39
l 11 127
l 127 126
l 126 125
l 125 124
l 124 123
l 123 38
